<svg xmlns="http://www.w3.org/2000/svg" viewBox="0 0 448 512"><!--!Font Awesome Free 6.5.2 by @fontawesome - https://fontawesome.com License - https://fontawesome.com/license/free Copyright 2024 Fonticons, Inc.--><path d="M304 108.1C268.2 72.5 234.2 38.4 224 0c-10 38.4-44.3 72.5-80 108.1C90.5 161.7 29.7 222.4 29.7 313.4c-2.3 107.3 82.8 196.2 190.1 198.5S415.9 429.2 418.3 321.9q.1-4.2 0-8.5C418.3 222.4 357.5 161.7 304 108.1zm-174.3 223a130.3 130.3 0 0 0 -15.2 24.2 5 5 0 0 1 -3.3 2.8h-1.7c-4.3 0-9.2-8.5-9.2-8.5h0c-1.3-2-2.5-4.1-3.7-6.4l-.8-1.8c-11.2-25.7-1.5-62.3-1.5-62.3h0a160.6 160.6 0 0 1 23.2-49.9A290.8 290.8 0 0 1 138.5 201.6l9.2 9.2 43.5 44.4a5 5 0 0 1 0 6.6L145.8 312.3h0zm96.6 127.3a67.2 67.2 0 0 1 -49.8-111.9c14.2-16.9 31.5-33.5 50.3-55.3 22.3 23.8 36.9 40.1 51.2 58a28.4 28.4 0 0 1 3 4.4 65.9 65.9 0 0 1 12 38 66.7 66.7 0 0 1 -66.5 66.8zM352.4 351.6h0a7.7 7.7 0 0 1 -6.2 5.3H344.9a11.2 11.2 0 0 1 -6.3-5.1h0a348.2 348.2 0 0 0 -39.5-49L281.4 284.5 222.3 223.2a497.9 497.9 0 0 1 -35.4-36.3 12 12 0 0 0 -.9-1.4 35.4 35.4 0 0 1 -4.7-9.2V174.5a31.3 31.3 0 0 1 9.2-27.7c11.4-11.4 23-23 33.8-34.9 12 13.3 24.8 26 37.4 38.6h0a531 531 0 0 1 69.6 79.1 147.5 147.5 0 0 1 27 83.8A134.1 134.1 0 0 1 352.4 351.6z"/></svg>