<svg xmlns="http://www.w3.org/2000/svg" width="170" height="28" viewBox="0 0 170 28">
  <g id="Logo" transform="translate(-108 -22)">
    <text id="_" data-name="&lt;" transform="translate(108 44)" fill="#a5d6df" font-size="21" font-family="OpenSans-SemiBold, Open Sans" font-weight="600"><tspan x="0" y="0">&lt;</tspan></text>
    <path id="Path_1" data-name="Path 1" d="M8.057,0,3.916-11.924H3.838Q4-9.268,4-6.943V0H1.885V-14.277H5.176L9.141-2.92H9.2l4.082-11.357h3.3V0H14.336V-7.061q0-1.064.054-2.773t.093-2.07H14.4L10.117,0ZM24.814.2a5.225,5.225,0,0,1-3.94-1.47,5.579,5.579,0,0,1-1.421-4.048,6.121,6.121,0,0,1,1.318-4.16A4.554,4.554,0,0,1,24.395-11a4.451,4.451,0,0,1,3.379,1.3,4.963,4.963,0,0,1,1.24,3.574v1.24h-7.2a3.548,3.548,0,0,0,.85,2.417,2.959,2.959,0,0,0,2.256.845A8.328,8.328,0,0,0,26.7-1.8a9.342,9.342,0,0,0,1.772-.6V-.537a7.046,7.046,0,0,1-1.7.566A10.42,10.42,0,0,1,24.814.2Zm-.42-9.453a2.306,2.306,0,0,0-1.753.693,3.3,3.3,0,0,0-.786,2.021h4.9a2.99,2.99,0,0,0-.645-2.026A2.2,2.2,0,0,0,24.395-9.258ZM33.916,0H31.621V-15.2h2.295Zm5.576,0H37.2V-10.8h2.295ZM37.061-13.662a1.271,1.271,0,0,1,.337-.947,1.313,1.313,0,0,1,.962-.332,1.285,1.285,0,0,1,.942.332,1.271,1.271,0,0,1,.337.947,1.247,1.247,0,0,1-.337.923,1.274,1.274,0,0,1-.942.337,1.3,1.3,0,0,1-.962-.337A1.247,1.247,0,0,1,37.061-13.662ZM50.029-3.076A2.826,2.826,0,0,1,48.877-.649a5.518,5.518,0,0,1-3.3.845,7.8,7.8,0,0,1-3.467-.654V-2.441a8.511,8.511,0,0,0,3.545.879q2.119,0,2.119-1.279a1.013,1.013,0,0,0-.234-.684,2.774,2.774,0,0,0-.771-.566,13.277,13.277,0,0,0-1.494-.664A6.912,6.912,0,0,1,42.749-6.2a2.674,2.674,0,0,1-.659-1.875,2.463,2.463,0,0,1,1.118-2.153A5.306,5.306,0,0,1,46.25-11a8.616,8.616,0,0,1,3.6.771L49.111-8.5a8.015,8.015,0,0,0-2.939-.723q-1.816,0-1.816,1.035a1.041,1.041,0,0,0,.474.859,10.416,10.416,0,0,0,2.065.967,9.441,9.441,0,0,1,1.943.947,2.831,2.831,0,0,1,.9.991A2.869,2.869,0,0,1,50.029-3.076Zm9.736,0A2.826,2.826,0,0,1,58.613-.649a5.518,5.518,0,0,1-3.3.845,7.8,7.8,0,0,1-3.467-.654V-2.441a8.511,8.511,0,0,0,3.545.879q2.119,0,2.119-1.279a1.013,1.013,0,0,0-.234-.684,2.774,2.774,0,0,0-.771-.566,13.277,13.277,0,0,0-1.494-.664A6.912,6.912,0,0,1,52.485-6.2a2.674,2.674,0,0,1-.659-1.875,2.463,2.463,0,0,1,1.118-2.153A5.306,5.306,0,0,1,55.986-11a8.616,8.616,0,0,1,3.6.771L58.848-8.5a8.015,8.015,0,0,0-2.939-.723q-1.816,0-1.816,1.035a1.041,1.041,0,0,0,.474.859,10.416,10.416,0,0,0,2.065.967,9.441,9.441,0,0,1,1.943.947,2.831,2.831,0,0,1,.9.991A2.869,2.869,0,0,1,59.766-3.076ZM69,0l-.459-1.5h-.078A4.425,4.425,0,0,1,66.895-.161,4.972,4.972,0,0,1,64.863.2a3.438,3.438,0,0,1-2.485-.859A3.216,3.216,0,0,1,61.484-3.1a2.855,2.855,0,0,1,1.24-2.52A7.151,7.151,0,0,1,66.5-6.543L68.369-6.6v-.576a2.184,2.184,0,0,0-.483-1.548,1.971,1.971,0,0,0-1.5-.513,5.183,5.183,0,0,0-1.592.244,12.012,12.012,0,0,0-1.465.576l-.742-1.641a7.988,7.988,0,0,1,1.924-.7A8.853,8.853,0,0,1,66.484-11a4.672,4.672,0,0,1,3.11.9,3.518,3.518,0,0,1,1.05,2.822V0ZM65.586-1.562a2.843,2.843,0,0,0,2.007-.7,2.531,2.531,0,0,0,.757-1.958v-.937L66.963-5.1a4.745,4.745,0,0,0-2.358.542,1.647,1.647,0,0,0-.737,1.479,1.444,1.444,0,0,0,.43,1.118A1.846,1.846,0,0,0,65.586-1.562ZM80.264,0,76.123-11.924h-.078q.166,2.656.166,4.98V0H74.092V-14.277h3.291L81.348-2.92h.059l4.082-11.357h3.3V0H86.543V-7.061q0-1.064.054-2.773t.093-2.07h-.078L82.324,0ZM94.6,0H92.3V-10.8H94.6ZM92.168-13.662a1.271,1.271,0,0,1,.337-.947,1.313,1.313,0,0,1,.962-.332,1.285,1.285,0,0,1,.942.332,1.271,1.271,0,0,1,.337.947,1.247,1.247,0,0,1-.337.923,1.274,1.274,0,0,1-.942.337,1.3,1.3,0,0,1-.962-.337A1.247,1.247,0,0,1,92.168-13.662ZM100.176,0H97.881V-15.2h2.295Zm5.576,0h-2.295V-15.2h2.295Zm8,.2a5.225,5.225,0,0,1-3.94-1.47,5.579,5.579,0,0,1-1.421-4.048,6.121,6.121,0,0,1,1.318-4.16A4.554,4.554,0,0,1,113.33-11a4.451,4.451,0,0,1,3.379,1.3,4.963,4.963,0,0,1,1.24,3.574v1.24h-7.2a3.548,3.548,0,0,0,.85,2.417,2.959,2.959,0,0,0,2.256.845A8.328,8.328,0,0,0,115.64-1.8a9.342,9.342,0,0,0,1.772-.6V-.537a7.046,7.046,0,0,1-1.7.566A10.419,10.419,0,0,1,113.75.2Zm-.42-9.453a2.306,2.306,0,0,0-1.753.693,3.3,3.3,0,0,0-.786,2.021h4.9a2.99,2.99,0,0,0-.645-2.026A2.2,2.2,0,0,0,113.33-9.258ZM126.035-11a5.524,5.524,0,0,1,1.143.1l-.225,2.139a4.337,4.337,0,0,0-1.016-.117,2.939,2.939,0,0,0-2.231.9,3.247,3.247,0,0,0-.854,2.334V0h-2.295V-10.8h1.8l.3,1.9h.117a4.279,4.279,0,0,1,1.4-1.533A3.331,3.331,0,0,1,126.035-11Z" transform="translate(123 43.195)" fill="#fff"/>
    <text id="_2" data-name="/&gt;" transform="translate(257 44)" fill="#a5d6df" font-size="21" font-family="OpenSans-SemiBold, Open Sans" font-weight="600"><tspan x="0" y="0">/&gt;</tspan></text>
  </g>
</svg>
